<svg width="23" height="24" viewBox="0 0 23 24" fill="none" xmlns="http://www.w3.org/2000/svg">
<path d="M4.66919 7.75111C5.08724 4.2958 8.01966 1.69678 11.5002 1.69678V1.69678C14.9807 1.69678 17.9131 4.2958 18.3312 7.75111L18.6324 10.2409C18.6651 10.5109 18.6814 10.6459 18.7022 10.7795C18.8041 11.4355 18.9873 12.0762 19.2476 12.6869C19.3006 12.8113 19.3581 12.9345 19.4731 13.181L20.104 14.5328C20.7013 15.8129 21 16.4529 20.7053 16.9158C20.4105 17.3786 19.7042 17.3786 18.2916 17.3786H4.70875C3.29614 17.3786 2.58984 17.3786 2.29509 16.9158C2.00033 16.4529 2.29901 15.8129 2.89639 14.5328L3.52726 13.181C3.64227 12.9345 3.69977 12.8113 3.75279 12.6869C4.01302 12.0762 4.19623 11.4355 4.29819 10.7795C4.31896 10.6459 4.33529 10.5109 4.36796 10.2409L4.66919 7.75111Z" stroke="#222222" stroke-width="1.5"/>
<path d="M8 20C8.20645 20.5738 8.66136 21.0808 9.29417 21.4424C9.92699 21.804 10.7024 22 11.5 22C12.2976 22 13.073 21.804 13.7058 21.4424C14.3386 21.0808 14.7936 20.5738 15 20" stroke="#222222" stroke-width="1.5" stroke-linecap="round"/>
</svg>
