<svg width="24" height="24" viewBox="0 0 24 24" fill="none" xmlns="http://www.w3.org/2000/svg">
<path d="M8.63281 15.0625C8.51888 15.0625 8.41309 15.0348 8.31543 14.9795C8.22103 14.9209 8.14453 14.8428 8.08594 14.7451C8.0306 14.6475 8.00456 14.5417 8.00781 14.4277C8.00456 14.3171 8.0306 14.2145 8.08594 14.1201C8.14453 14.0225 8.22103 13.946 8.31543 13.8906C8.41309 13.832 8.51888 13.8027 8.63281 13.8027C8.74349 13.8027 8.84603 13.832 8.94043 13.8906C9.03809 13.946 9.11458 14.0225 9.16992 14.1201C9.22852 14.2145 9.25781 14.3171 9.25781 14.4277C9.25781 14.5417 9.22852 14.6475 9.16992 14.7451C9.11458 14.8428 9.03809 14.9209 8.94043 14.9795C8.84603 15.0348 8.74349 15.0625 8.63281 15.0625ZM8.63281 11.1367C8.51888 11.1367 8.41309 11.109 8.31543 11.0537C8.22103 10.9951 8.14453 10.917 8.08594 10.8193C8.0306 10.7217 8.00456 10.6159 8.00781 10.502C8.00456 10.3913 8.0306 10.2887 8.08594 10.1943C8.14453 10.0967 8.22103 10.0202 8.31543 9.96484C8.41309 9.90625 8.51888 9.87695 8.63281 9.87695C8.74349 9.87695 8.84603 9.90625 8.94043 9.96484C9.03809 10.0202 9.11458 10.0967 9.16992 10.1943C9.22852 10.2887 9.25781 10.3913 9.25781 10.502C9.25781 10.6159 9.22852 10.7217 9.16992 10.8193C9.11458 10.917 9.03809 10.9951 8.94043 11.0537C8.84603 11.109 8.74349 11.1367 8.63281 11.1367ZM13.6133 12.8555H10.5176V12.084H13.6133V12.8555ZM16.748 12.4648C16.7448 13.373 16.6243 14.2145 16.3867 14.9893C16.1491 15.764 15.8008 16.485 15.3418 17.1523H14.5996C14.8242 16.8268 15.0342 16.4053 15.2295 15.8877C15.4248 15.3701 15.5811 14.8102 15.6982 14.208C15.8187 13.6058 15.8789 13.0247 15.8789 12.4648C15.8789 11.9049 15.8187 11.3255 15.6982 10.7266C15.5811 10.1276 15.4248 9.56934 15.2295 9.05176C15.0342 8.53418 14.8242 8.11263 14.5996 7.78711H15.3418C16.2695 9.12826 16.7383 10.6875 16.748 12.4648Z" fill="#8C8C8C"/>
<circle cx="12" cy="12" r="11.5" stroke="#8C8C8C" stroke-dasharray="3 3"/>
</svg>
