<svg width="205" height="68" viewBox="0 0 205 68" fill="none" xmlns="http://www.w3.org/2000/svg">
<path d="M0 60.615L6.63641 53.4217C9.98622 56.363 13.4308 57.8336 16.9703 57.8336C17.9815 57.8336 18.898 57.7377 19.7196 57.5458C20.6045 57.2901 21.3313 56.9064 21.9002 56.3949C22.6586 55.6916 23.101 54.8604 23.2274 53.9013C23.3539 52.8782 23.3539 52.047 23.2274 51.4076C22.9746 50.2567 22.1846 49.3615 20.8573 48.7221C19.5932 48.0188 18.0131 47.4114 16.117 46.8999C14.2841 46.3244 12.388 45.6211 10.4286 44.7898C8.46933 43.9586 6.73122 42.8397 5.21432 41.433C2.74937 39.0672 1.32728 36.5736 0.948059 33.952C0.632039 31.2666 1.13767 28.7729 2.46495 26.4711C3.85544 24.1693 5.87797 22.315 8.53253 20.9083C11.1871 19.4377 14.2841 18.7024 17.8235 18.7024C21.1733 18.7024 24.1755 19.3098 26.8301 20.5247C29.4846 21.6756 31.602 23.1782 33.1821 25.0324L25.9768 31.5543C24.9656 30.5952 23.7015 29.8919 22.1846 29.4443C20.7309 28.9328 19.3088 28.677 17.9183 28.677C16.4646 28.677 15.2005 28.9967 14.1261 29.6361C13.0516 30.2116 12.5144 31.2346 12.5144 32.7052C12.5144 33.8561 12.9568 34.7833 13.8417 35.4866C14.7265 36.1899 15.8642 36.7974 17.2547 37.3089C18.7084 37.8204 20.2569 38.3639 21.9002 38.9394C23.6067 39.4509 25.2184 40.1222 26.7353 40.9535C28.6946 41.9765 30.3379 43.4471 31.6652 45.3653C32.9925 47.2196 33.6561 49.6493 33.6561 52.6544C33.6561 55.9154 32.866 58.6648 31.2859 60.9027C29.7691 63.1406 27.7465 64.867 25.2184 66.0818C22.6902 67.2327 19.9092 67.8082 16.8755 67.8082C13.9049 67.8082 10.9343 67.2327 7.9637 66.0818C5.05631 64.867 2.40175 63.0447 0 60.615Z" fill="#FF5A00"/>
<path d="M48.1207 45.3653V29.8279H41.1998V19.1819H48.1207V0H59.3078V19.1819H66.7026V29.8279H59.3078V45.3653C59.3078 48.2426 59.529 50.4166 59.9714 51.8872C60.4138 53.3578 61.0143 54.3808 61.7727 54.9563C62.5944 55.4678 63.4792 55.7555 64.4273 55.8195C65.4385 55.8834 66.4498 55.9154 67.4611 55.9154H69.0728V67.3286H67.6507C64.1745 67.3286 61.2039 67.0729 58.7389 66.5614C56.274 66.0498 54.2514 65.0588 52.6713 63.5882C51.0912 62.0536 49.922 59.8477 49.1635 56.9704C48.4683 54.0291 48.1207 50.1608 48.1207 45.3653Z" fill="#FF5A00"/>
<path d="M122.071 47.5712H88.8894C89.1422 50.4485 90.2167 52.6544 92.1128 54.189C94.0089 55.7236 96.3475 56.6187 99.1285 56.8745C101.909 57.0663 104.754 56.6827 107.661 55.7236C110.632 54.7005 113.286 53.166 115.625 51.1199L121.882 59.8477C118.406 62.7889 114.866 64.8989 111.264 66.1777C107.724 67.3926 104.216 68 100.74 68C92.7133 68 86.6773 65.7301 82.6322 61.1904C78.6504 56.6507 76.6595 50.2247 76.6595 41.9126C76.6595 37.181 77.5759 33.0569 79.4088 29.5402C81.3049 26.0235 83.9595 23.3061 87.3725 21.3879C90.8487 19.4697 94.9254 18.5425 99.6025 18.6065C109.842 18.7344 116.668 22.7945 120.081 30.787C121.029 33.0889 121.629 35.6145 121.882 38.3639C122.198 41.1133 122.261 44.1824 122.071 47.5712ZM100.645 29.3484C96.7899 29.3484 93.8509 30.4034 91.8284 32.5134C89.8691 34.6234 88.8894 36.9572 88.8894 39.5148H112.306C112.306 36.8933 111.295 34.5595 109.273 32.5134C107.313 30.4034 104.438 29.3484 100.645 29.3484Z" fill="#FF5A00"/>
<path d="M205 19.1819L188.883 67.1368H175.041L165.087 34.8152L155.227 67.1368H141.385L125.173 19.1819H137.972L148.211 54.4767L159.209 19.1819H171.059L182.057 54.3808L192.201 19.1819H205Z" fill="#FF5A00"/>
</svg>
